<?xml version="1.0" standalone="no"?>
<!DOCTYPE svg PUBLIC "-//W3C//DTD SVG 20010904//EN"
 "http://www.w3.org/TR/2001/REC-SVG-20010904/DTD/svg10.dtd">
<svg version="1.0" xmlns="http://www.w3.org/2000/svg"
 width="700.000000pt" height="700.000000pt" viewBox="0 0 700.000000 700.000000"
 preserveAspectRatio="xMidYMid meet">
<metadata>
Created by potrace 1.11, written by Peter Selinger 2001-2013
</metadata>
<g transform="translate(0.000000,700.000000) scale(0.100000,-0.100000)"
fill="#000000" stroke="none">
<path d="M3339 5386 c-2 -2 -38 -7 -79 -10 -148 -14 -342 -60 -501 -120 -87
-32 -260 -111 -299 -136 -8 -5 -52 -32 -97 -59 -82 -50 -209 -143 -270 -198
-121 -110 -215 -208 -274 -288 -24 -33 -47 -62 -50 -65 -9 -8 -89 -131 -89
-137 0 -3 -9 -17 -19 -32 -59 -82 -159 -311 -202 -461 -22 -77 -57 -239 -63
-295 -3 -22 -8 -67 -11 -100 -8 -68 -8 -302 -1 -355 3 -19 8 -60 11 -90 36
-330 196 -707 419 -994 155 -197 413 -424 601 -526 22 -12 54 -29 70 -39 17
-10 75 -38 130 -63 212 -97 440 -158 685 -184 82 -8 361 -8 420 1 154 22 240
36 275 45 22 6 51 13 65 16 62 13 265 87 364 134 171 81 360 203 481 309 157
138 339 353 437 516 125 208 225 476 263 705 3 19 7 46 10 60 9 48 18 185 18
275 2 319 -63 610 -200 894 -251 523 -725 930 -1283 1102 -131 41 -176 51
-387 85 -34 6 -419 14 -424 10z"/>
</g>
</svg>
